<svg width="28" height="28" viewBox="0 0 28 28" fill="none" xmlns="http://www.w3.org/2000/svg">
<path d="M10.0534 26.7198C11.3334 27.1065 12.6268 27.3332 14.0001 27.3332C17.5363 27.3332 20.9277 25.9284 23.4282 23.4279C25.9287 20.9274 27.3334 17.5361 27.3334 13.9998C27.3334 12.2489 26.9885 10.5151 26.3185 8.89739C25.6484 7.27972 24.6663 5.80986 23.4282 4.57175C22.1901 3.33363 20.7202 2.35151 19.1025 1.68144C17.4849 1.01138 15.751 0.666504 14.0001 0.666504C12.2491 0.666504 10.5153 1.01138 8.89764 1.68144C7.27996 2.35151 5.81011 3.33363 4.57199 4.57175C2.07151 7.07223 0.666748 10.4636 0.666748 13.9998C0.666748 19.6665 4.22675 24.5332 9.25342 26.4532C9.13342 25.4132 9.01342 23.6932 9.25342 22.5065L10.7868 15.9198C10.7868 15.9198 10.4001 15.1465 10.4001 13.9198C10.4001 12.0798 11.5468 10.7065 12.8534 10.7065C14.0001 10.7065 14.5334 11.5465 14.5334 12.6265C14.5334 13.7732 13.7734 15.4132 13.3868 16.9865C13.1601 18.2932 14.0801 19.4398 15.4134 19.4398C17.7868 19.4398 19.6268 16.9065 19.6268 13.3332C19.6268 10.1332 17.3334 7.94651 14.0401 7.94651C10.2801 7.94651 8.06675 10.7465 8.06675 13.6932C8.06675 14.8398 8.44008 15.9998 9.05342 16.7598C9.17342 16.8398 9.17342 16.9465 9.13342 17.1465L8.74675 18.5998C8.74675 18.8265 8.60008 18.9065 8.37342 18.7465C6.66675 17.9998 5.68008 15.5732 5.68008 13.6132C5.68008 9.39984 8.66675 5.57317 14.4268 5.57317C19.0134 5.57317 22.5868 8.86651 22.5868 13.2398C22.5868 17.8265 19.7468 21.5065 15.6801 21.5065C14.3868 21.5065 13.1201 20.8132 12.6668 19.9998L11.7734 23.1598C11.4668 24.3065 10.6267 25.8398 10.0534 26.7598V26.7198Z" fill="white"/>
</svg>
