<svg width="28" height="28" viewBox="0 0 28 28" fill="none" xmlns="http://www.w3.org/2000/svg">
<path d="M14.0001 0.666504C6.64008 0.666504 0.666748 6.63984 0.666748 13.9998C0.666748 21.3598 6.64008 27.3332 14.0001 27.3332C21.3601 27.3332 27.3334 21.3598 27.3334 13.9998C27.3334 6.63984 21.3601 0.666504 14.0001 0.666504ZM20.1868 9.73317C19.9868 11.8398 19.1201 16.9598 18.6801 19.3198C18.4934 20.3198 18.1201 20.6532 17.7734 20.6932C17.0001 20.7598 16.4134 20.1865 15.6668 19.6932C14.4934 18.9198 13.8268 18.4398 12.6934 17.6932C11.3734 16.8265 12.2268 16.3465 12.9868 15.5732C13.1868 15.3732 16.6001 12.2665 16.6668 11.9865C16.676 11.9441 16.6748 11.9001 16.6632 11.8582C16.6515 11.8164 16.6299 11.7781 16.6001 11.7465C16.5201 11.6798 16.4134 11.7065 16.3201 11.7198C16.2001 11.7465 14.3334 12.9865 10.6934 15.4398C10.1601 15.7998 9.68008 15.9865 9.25342 15.9732C8.77342 15.9598 7.86675 15.7065 7.18675 15.4798C6.34675 15.2132 5.69342 15.0665 5.74675 14.5998C5.77342 14.3598 6.10675 14.1198 6.73342 13.8665C10.6268 12.1732 13.2134 11.0532 14.5068 10.5198C18.2134 8.97317 18.9734 8.7065 19.4801 8.7065C19.5868 8.7065 19.8401 8.73317 20.0001 8.8665C20.1334 8.97317 20.1734 9.11984 20.1868 9.22651C20.1734 9.30651 20.2001 9.54651 20.1868 9.73317Z" fill="white"/>
</svg>
